<svg xmlns="http://www.w3.org/2000/svg" viewBox="0 0 16 16" width="16" height="16" fill="#1793d1">
  <path transform="scale(0.8) translate(0,1.1)" d="M6.4 1.8c-0.352 0.872-0.576 1.424-0.976 2.272 0.248 0.272 0.552 0.576 1.024 0.904-0.528-0.2-0.872-0.424-1.128-0.648-0.528 1.072-1.328 2.576-2.928 5.504 1.248-0.752 2.248-1.2 3.176-1.376-0.048-0.176-0.072-0.352-0.072-0.552v-0.024c0.024-0.824 0.448-1.448 0.952-1.4 0.504 0.024 0.904 0.728 0.872 1.552l-0.048 0.424c0.904 0.176 1.872 0.648 3.128 1.352l-0.672-1.248c-0.328-0.248-0.672-0.576-1.376-0.952 0.472 0.128 0.824 0.272 1.104 0.424-2.152-3.976-2.328-4.504-3.048-6.248z"/>
</svg>

