<svg xmlns="http://www.w3.org/2000/svg" viewBox="0 0 16 16" width="16" height="16">
  <path d="M8 2.25c-0.44 1.09-0.72 1.78-1.22 2.84 0.31 0.34 0.69 0.72 1.28 1.13-0.66-0.25-1.09-0.53-1.41-0.81-0.66 1.34-1.66 3.22-3.66 6.88 1.56-0.94 2.81-1.5 3.97-1.72-0.06-0.22-0.09-0.44-0.09-0.69v-0.03c0.03-1.03 0.56-1.81 1.19-1.75 0.63 0.03 1.13 0.91 1.09 1.94l-0.06 0.53c1.13 0.22 2.34 0.81 3.91 1.69l-0.84-1.56c-0.41-0.31-0.84-0.72-1.72-1.19 0.59 0.16 1.03 0.34 1.38 0.53-2.69-4.97-2.91-5.63-3.81-7.81z" fill="#1793d1"/>
</svg>
