<svg xmlns="http://www.w3.org/2000/svg" viewBox="0 0 16 16" width="16" height="16">
  <path d="M11.9 9.3c.02 2.65 2.32 3.53 2.35 3.54-.02.06-.37 1.26-1.21 2.49-.73 1.07-1.49 2.13-2.68 2.15-1.17.02-1.55-.7-2.89-.7-1.34 0-1.76.67-2.87.72-1.15.04-2.03-1.15-2.77-2.22-1.5-2.17-2.65-6.14-1.11-8.82.77-1.33 2.14-2.17 3.62-2.19 1.13-.02 2.2.76 2.89.76.69 0 1.99-.94 3.35-.8.57.02 2.17.23 3.2 1.74-.08.05-1.91 1.12-1.89 3.33m-2.19-6.49c.55-.74.92-1.77.81-2.8-.88.04-1.94.59-2.58 1.33-.57.65-1.06 1.7-.93 2.71.98.08 1.99-.5 2.6-1.24"/>
</svg>
