<svg xmlns="http://www.w3.org/2000/svg" viewBox="0 0 16 16" fill="none" width="16" height="16">
  <path d="
    M14 10.67V4.8
    C14 4.05 14 3.68 13.86 3.39
    C13.73 3.14 13.52 2.94 13.27 2.81
    C12.99 2.67 12.61 2.67 11.87 2.67
    H4.13
    C3.39 2.67 3.01 2.67 2.73 2.81
    C2.48 2.94 2.27 3.14 2.15 3.39
    C2 3.68 2 4.05 2 4.8
    V10.67
    M1.33 10.67H14.67V11.2
    C14.67 11.95 14.67 12.32 14.52 12.61
    C14.39 12.86 14.19 13.06 13.94 13.19
    C13.65 13.33 13.28 13.33 12.53 13.33
    H3.47
    C2.72 13.33 2.35 13.33 2.06 13.19
    C1.81 13.06 1.61 12.86 1.48 12.61
    C1.33 12.32 1.33 11.95 1.33 11.2
    V10.67Z" stroke="#000000" stroke-width="1.33" stroke-linejoin="round"/>
</svg>

