<svg xmlns="http://www.w3.org/2000/svg" viewBox="0 0 16 16" width="16" height="16">
  <path d="M15 8C15 11.864 11.8675 15 8 15C4.1325 15 1 11.864 1 8C1 4.1325 4.1325 1 8 1C11.8675 1 15 4.1325 15 8Z" fill="#E95420"/>
  <path d="M3.41077 7.07815C2.90593 7.07815 2.5 7.49325 2.5 8.00175C2.5 8.51025 2.90934 8.92535 3.41077 8.92535C3.91221 8.92535 4.32155 8.51025 4.32155 8.00175C4.32155 7.48975 3.91221 7.07815 3.41077 7.07815ZM9.9158 11.2741C9.47915 11.5301 9.3325 12.094 9.5815 12.5367C9.83395 12.9795 10.38995 13.1317 10.82655 12.8757C11.2632 12.6198 11.40985 12.0559 11.16085 11.6131C10.90505 11.1738 10.349 11.0216 9.9158 11.2741ZM5.38925 8.00175C5.38925 7.0885 5.8361 6.2825 6.5217 5.7948L5.85655 4.66363C5.05835 5.20325 4.46823 6.03 4.21921 6.9951C4.50575 7.2338 4.68995 7.597 4.68995 8.00175C4.68995 8.40645 4.50575 8.76965 4.21921 9.00835C4.46481 9.97345 5.05835 10.8002 5.85655 11.3399L6.5217 10.2087C5.8361 9.72095 5.38925 8.91495 5.38925 8.00175ZM8.0499 5.30355C9.44165 5.30355 10.58095 6.38285 10.70035 7.7631L12 7.7423C11.9352 6.7253 11.49855 5.81205 10.82315 5.141C10.4752 5.27245 10.0761 5.2517 9.7316 5.05105C9.38365 4.84695 9.16875 4.50795 9.10735 4.13438C8.76965 4.04098 8.4149 3.98908 8.0499 3.98908C7.41885 3.98908 6.8253 4.13783 6.2966 4.40419L6.93105 5.55265C7.26875 5.3935 7.6508 5.30355 8.0499 5.30355ZM8.0499 10.6999C7.6508 10.6999 7.26875 10.61 6.92765 10.4509L6.2932 11.5993C6.8219 11.8657 7.41885 12.0144 8.0465 12.0144C8.4115 12.0144 8.76625 11.9625 9.10395 11.8691C9.16195 11.499 9.38025 11.1565 9.7282 10.9524C10.0727 10.7483 10.4752 10.731 10.81975 10.8625C11.49175 10.1914 11.9318 9.27815 11.9966 8.26115L10.69695 8.2404C10.58095 9.61715 9.44165 10.6999 8.0499 10.6999ZM9.9124 4.72589C10.349 4.98187 10.90505 4.82967 11.15745 4.38689C11.4099 3.94412 11.2598 3.38027 10.82315 3.1243C10.38655 2.86832 9.8205 3.02052 9.5781 3.4633C9.3291 3.90607 9.47915 4.46992 9.9124 4.72589Z" fill="white"/>
</svg>
